<svg width="1100" height="700" xmlns="http://www.w3.org/2000/svg">

<style>
text{
font-family:sans-serif;
font-size:14px;
fill:white;
text-anchor:middle;
dominant-baseline:middle;
}

.node{ rx:18; ry:18; }
.link{ fill:none; stroke-width:3; }

</style>

<!-- ===== 中央ノード ===== -->

<g>
<ellipse cx="550" cy="350" rx="90" ry="45" fill="#bfbfbf"/>
<text x="550" y="350">メインのアイデア</text>
</g>

<!-- ===== 左（紫グループ） ===== -->

<g stroke="#6f79d8" class="link">
<path d="M550 350 C460 330 380 300 300 260"/>
<path d="M300 260 C250 250 220 240 190 230"/>
<path d="M300 260 C250 290 220 300 190 320"/>
<path d="M300 260 C250 330 220 360 190 380"/>
</g>

<g fill="#6f79d8">
<rect x="150" y="210" width="90" height="35" class="node"/>
<rect x="150" y="300" width="90" height="35" class="node"/>
<rect x="150" y="360" width="90" height="35" class="node"/>
<rect x="255" y="240" width="90" height="35" class="node"/>
</g>

<text x="195" y="228">テキスト</text>
<text x="195" y="318">テキスト</text>
<text x="195" y="378">テキスト</text>
<text x="300" y="258">テキスト</text>

<!-- ===== 左下（青） ===== -->

<g stroke="#3f86d9" class="link">
<path d="M550 350 C460 380 380 420 300 460"/>
<path d="M300 460 C260 480 230 520 200 540"/>
<path d="M300 460 C260 460 220 460 200 460"/>
</g>

<g fill="#3f86d9">
<rect x="255" y="440" width="90" height="35" class="node"/>
<rect x="150" y="520" width="90" height="35" class="node"/>
<rect x="150" y="440" width="90" height="35" class="node"/>
</g>

<text x="300" y="458">テキスト</text>
<text x="195" y="538">テキスト</text>
<text x="195" y="458">テキスト</text>

<!-- ===== 上（黄色） ===== -->

<g stroke="#f0a93b" class="link">
<path d="M550 350 C550 280 550 220 550 170"/>
<path d="M550 170 C500 140 460 120 420 110"/>
<path d="M550 170 C600 140 640 120 690 110"/>
<path d="M550 170 C540 130 520 90 510 70"/>
</g>

<g fill="#f0a93b">
<rect x="380" y="90" width="100" height="38" class="node"/>
<rect x="650" y="90" width="100" height="38" class="node"/>
<rect x="500" y="40" width="100" height="38" class="node"/>
<rect x="500" y="150" width="100" height="38" class="node"/>
</g>

<text x="430" y="109">テキスト</text>
<text x="700" y="109">テキスト</text>
<text x="550" y="59">テキスト</text>
<text x="550" y="169">テキスト</text>

<!-- ===== 右（赤） ===== -->

<g stroke="#ef6b6b" class="link">
<path d="M550 350 C640 320 700 300 770 260"/>
<path d="M770 260 C830 230 880 210 920 200"/>
<path d="M770 260 C830 260 880 260 920 260"/>
<path d="M770 260 C830 300 880 320 920 340"/>
</g>

<g fill="#ef6b6b">
<rect x="740" y="240" width="100" height="38" class="node"/>
<rect x="900" y="180" width="100" height="38" class="node"/>
<rect x="900" y="240" width="100" height="38" class="node"/>
<rect x="900" y="320" width="100" height="38" class="node"/>
</g>

<text x="790" y="259">テキスト</text>
<text x="950" y="199">テキスト</text>
<text x="950" y="259">テキスト</text>
<text x="950" y="339">テキスト</text>

<!-- ===== 下（緑） ===== -->

<g stroke="#38a9a3" class="link">
<path d="M550 350 C560 420 560 470 560 510"/>
<path d="M560 510 C520 540 500 560 470 580"/>
<path d="M560 510 C600 540 630 560 660 580"/>
</g>

<g fill="#38a9a3">
<rect x="510" y="490" width="100" height="38" class="node"/>
<rect x="430" y="560" width="100" height="38" class="node"/>
<rect x="630" y="560" width="100" height="38" class="node"/>
</g>

<text x="560" y="509">テキスト</text>
<text x="480" y="579">テキスト</text>
<text x="680" y="579">テキスト</text>

</svg>